# xmcd
#
# Track frame offsets:
#	150
#	24135
#	40590
#	60288
#	80168
#	98848
#	121458
#	143500
#	167503
#	189050
#
# Disc length: 2833 seconds
#
# Revision: 0
# Processed by: cddbd v1.5.2PL0 Copyright (c) Steve Scherf et al.
# Submitted via: EasyCDDAExtractor 16.0.9.1
#
DISCID=6a0b0f0a
DTITLE=Various Artist - Dạ vũ Xuân
DYEAR=1991
DGENRE=Pop
TTITLE0=Kiều Nga - Ly Rượu  Mừng [Valse]
TTITLE1=Hằng Nga - Xuân Họp Mặt [ChaCha]
TTITLE2=Ngọc Minh - Cánh Thiệp Đầu Xuân [Rumba]
TTITLE3=Lệ Hằng and Thanh Vân - Xuân Đã Về [Bebop]
TTITLE4=Huy Sinh - Câu Chuyện Đầu Năm [Bolero]
TTITLE5=Kiều Nga - Đón Xuân Này Nhớ Xuân Xưa [Slow]
TTITLE6=Nhã Tâm - Xuân Yêu Thương [New Wave]
TTITLE7=Lệ Hằng and Thanh Vân - Đồn Vắng Chiều Xuân [Rumba]
TTITLE8=Anh Thoại - Xuân Này Con Không Về [Bolero]
TTITLE9=Hằng Nga - Đan Áo Mùa Xuân [Rumba]
EXTD=
EXTT0=
EXTT1=
EXTT2=
EXTT3=
EXTT4=
EXTT5=
EXTT6=
EXTT7=
EXTT8=
EXTT9=
PLAYORDER=
